<svg id="Layer_1" data-name="Layer 1" xmlns="http://www.w3.org/2000/svg" xmlns:xlink="http://www.w3.org/1999/xlink" viewBox="0 0 512 476"><defs><style>.cls-1{fill:url(#linear-gradient);}</style><linearGradient id="linear-gradient" x1="512" y1="256" x2="0" y2="256" gradientUnits="userSpaceOnUse"><stop offset="0" stop-color="#1fff84"/><stop offset="1" stop-color="#1f85ff"/></linearGradient></defs><title>add</title><path class="cls-1" d="M432,18H80A80.08915,80.08915,0,0,0,0,98V378a80.08915,80.08915,0,0,0,80,80H270a19.99762,19.99762,0,0,0,15.81641-32.23828l-52.3125-67.60937L378.49609,173.72656,472,285.27344V319a20,20,0,0,0,40,0V98A80.08915,80.08915,0,0,0,432,18ZM393.32813,129.15234a20.00147,20.00147,0,0,0-31.05078.48828L208.26172,325.53516l-52.44531-67.77344A19.99327,19.99327,0,0,0,140,250h-.02734a19.99217,19.99217,0,0,0-15.82422,7.80469L80.13281,315.02344a19.99994,19.99994,0,0,0,31.70313,24.39063l28.21094-36.67187L229.23438,418H80a40.04709,40.04709,0,0,1-40-40V98A40.04709,40.04709,0,0,1,80,58H432a40.04709,40.04709,0,0,1,40,40V223.00781ZM140,90a60,60,0,1,0,60,60A60.06561,60.06561,0,0,0,140,90Zm0,80a20,20,0,1,1,20-20A20.02354,20.02354,0,0,1,140,170ZM512,399a19.99849,19.99849,0,0,1-20,20H437v55a20,20,0,0,1-40,0V419H342a20,20,0,0,1,0-40h55V324a20,20,0,0,1,40,0v55h55A19.99849,19.99849,0,0,1,512,399Z" transform="translate(0 -18)"/></svg>