<svg id="Layer_1" data-name="Layer 1" xmlns="http://www.w3.org/2000/svg" xmlns:xlink="http://www.w3.org/1999/xlink" viewBox="0 0 512 512"><defs><style>.cls-1{fill:url(#linear-gradient);}.cls-2{fill:url(#linear-gradient-2);}</style><linearGradient id="linear-gradient" x1="512" y1="355.33984" x2="198.67969" y2="355.33984" gradientUnits="userSpaceOnUse"><stop offset="0" stop-color="#1fff84"/><stop offset="1" stop-color="#1f85ff"/></linearGradient><linearGradient id="linear-gradient-2" x1="391" y1="195.5" x2="0" y2="195.5" xlink:href="#linear-gradient"/></defs><title>help</title><path class="cls-1" d="M512,346.5a166.00574,166.00574,0,0,0-91.03906-147.82031C419.26563,320.5,320.5,419.26563,198.67969,420.96094a165.55422,165.55422,0,0,0,232.03125,68.03125l80.56641,22.28516-22.28516-80.56641A164.90642,164.90642,0,0,0,512,346.5Z"/><path class="cls-2" d="M391,195.5C391,87.69922,303.30078,0,195.5,0S0,87.69922,0,195.5a194.89074,194.89074,0,0,0,27.10938,99.37109L.71875,390.27734l95.41016-26.38672A194.89075,194.89075,0,0,0,195.5,391C303.30078,391,391,303.30078,391,195.5ZM165.5,150h-30a60,60,0,1,1,100.48828,44.27734L210.5,217.60547V241h-30V204.39453l35.23438-32.25A29.69174,29.69174,0,0,0,225.5,150a30,30,0,0,0-60,0Zm15,121h30v30h-30Z"/></svg>