<svg id="Layer_1" data-name="Layer 1" xmlns="http://www.w3.org/2000/svg" xmlns:xlink="http://www.w3.org/1999/xlink" viewBox="0 0 511.94779 512"><defs><style>.cls-1{fill:url(#New_Gradient_Swatch_1);}</style><linearGradient id="New_Gradient_Swatch_1" x1="511.94727" y1="256" x2="-0.00053" y2="256" gradientUnits="userSpaceOnUse"><stop offset="0" stop-color="#1fff84"/><stop offset="1" stop-color="#1f85ff"/></linearGradient></defs><title>home</title><path class="cls-1" d="M498.19531,222.69531l-.03516-.03516L289.30469,13.8125a47.12432,47.12432,0,0,0-66.66016-.00391L13.89844,222.55078c-.07031.07031-.14063.14453-.21094.21484a47.11406,47.11406,0,0,0,31.36719,80.30469q.7207.07031,1.45313.07031H54.832V456.83984A55.226,55.226,0,0,0,110,512h81.71094a15.00137,15.00137,0,0,0,15-15V376.5a25.19488,25.19488,0,0,1,25.168-25.168h48.19531a25.19488,25.19488,0,0,1,25.168,25.168V497a14.99887,14.99887,0,0,0,15,15h81.71094a55.226,55.226,0,0,0,55.168-55.16016V303.14063h7.71875a47.13868,47.13868,0,0,0,33.35547-80.44531Z" transform="translate(0.00053)"/></svg>