<svg id="Layer_1" data-name="Layer 1" xmlns="http://www.w3.org/2000/svg" xmlns:xlink="http://www.w3.org/1999/xlink" viewBox="0 0 427.16406 512.00391"><defs><style>.cls-1{fill:url(#linear-gradient);}.cls-2{fill:url(#linear-gradient-2);}</style><linearGradient id="linear-gradient" x1="375.67188" y1="123.31641" x2="129.03125" y2="123.31641" gradientUnits="userSpaceOnUse"><stop offset="0" stop-color="#1fff84"/><stop offset="1" stop-color="#1f85ff"/></linearGradient><linearGradient id="linear-gradient-2" x1="469.16406" y1="379.66016" x2="42" y2="379.66016" xlink:href="#linear-gradient"/></defs><title>user</title><path class="cls-1" d="M252.35156,246.63281c33.88281,0,63.22266-12.15234,87.19531-36.12891,23.97266-23.97266,36.125-53.30469,36.125-87.19141,0-33.875-12.15234-63.21094-36.12891-87.19141C315.56641,12.15234,286.23047,0,252.35156,0c-33.88672,0-63.21875,12.15234-87.19141,36.125s-36.12891,53.30859-36.12891,87.1875c0,33.88672,12.15625,63.22266,36.13281,87.19531C189.14063,234.47656,218.47656,246.63281,252.35156,246.63281Z" transform="translate(-42)"/><path class="cls-2" d="M468.12891,393.70313a304.5937,304.5937,0,0,0-4.14844-32.35156,254.89186,254.89186,0,0,0-7.957-32.52734,160.66239,160.66239,0,0,0-13.37109-30.33594,114.47779,114.47779,0,0,0-20.16406-26.27734,88.90353,88.90353,0,0,0-28.96484-18.19922,100.10262,100.10262,0,0,0-36.97656-6.69141c-5.22656,0-10.28125,2.14453-20.043,8.5-6.00781,3.918-13.03516,8.44922-20.87891,13.46094-6.707,4.27344-15.793,8.27734-27.01562,11.90234a104.90492,104.90492,0,0,1-66.08594,0c-11.21094-3.62109-20.29687-7.625-26.99609-11.89844-7.76953-4.96484-14.80078-9.49609-20.89844-13.46875-9.75-6.35547-14.80859-8.5-20.03516-8.5a99.97482,99.97482,0,0,0-36.97266,6.69922,88.827,88.827,0,0,0-28.96875,18.19922,114.48806,114.48806,0,0,0-20.15625,26.27344A160.97633,160.97633,0,0,0,55.125,328.82813a255.49793,255.49793,0,0,0-7.95312,32.52344,303.51769,303.51769,0,0,0-4.14844,32.36328C42.34375,403.51172,42,413.67969,42,423.94922c0,26.72656,8.49609,48.36328,25.25,64.32031,16.54688,15.74609,38.44141,23.73437,65.06641,23.73437H378.84766c26.625,0,48.51172-7.98437,65.0625-23.73437,16.75781-15.94531,25.25391-37.58594,25.25391-64.32422C469.16016,413.62891,468.8125,403.45313,468.12891,393.70313Z" transform="translate(-42)"/></svg>